<?xml version="1.0" encoding="utf-8"?>
<!-- Svg Vector Icons : http://www.onlinewebfonts.com/icon -->
<!DOCTYPE svg PUBLIC "-//W3C//DTD SVG 1.1//EN" "http://www.w3.org/Graphics/SVG/1.1/DTD/svg11.dtd">
<svg version="1.1" xmlns="http://www.w3.org/2000/svg" xmlns:xlink="http://www.w3.org/1999/xlink" x="0px" y="0px" viewBox="0 0 256 256" enable-background="new 0 0 256 256" xml:space="preserve">
<metadata> Svg Vector Icons : http://www.onlinewebfonts.com/icon </metadata>
<g><g><path fill="#000000" d="M128,10C62.8,10,10,62.8,10,128c0,65.2,52.8,118,118,118c65.2,0,118-52.8,118-118C246,62.8,193.2,10,128,10z M119.2,176.9h-12.6v-44.1H57.1v44.1H44.4V79.1h12.6v42.5h49.5V79.1h12.6V176.9L119.2,176.9z M200.9,176.9l-16.2-27.1c-3.3-5.4-6.2-9.1-8.9-11.1s-5.9-2.9-9.7-2.9h-9.1v41.2h-12.6V79.1h29.8c9.5,0,17,2.3,22.3,6.9s8.1,11,8.1,19.3c0,13.6-7.2,22.3-21.7,26.4v0.3c2.7,1.1,5,2.7,7,4.9c2,2.1,4.5,5.7,7.6,10.8l18.3,29.3L200.9,176.9L200.9,176.9z"/><path fill="#000000" d="M191.4,106.4c0-5.1-1.6-9.1-4.9-11.9c-3.3-2.9-8.1-4.3-14.3-4.3h-15.1v34.5H172c5.8,0,10.5-1.7,14-5.1C189.6,116.3,191.4,111.8,191.4,106.4z"/></g></g>
</svg>